<svg xmlns="http://www.w3.org/2000/svg" viewBox="0 0 640 360" width="640" height="360">
  <rect width="640" height="360" fill="#E8EAF6"/>
  <text x="320" y="50" text-anchor="middle" font-size="28" font-weight="bold" fill="#283593" font-family="sans-serif">排列和序列 Ordering</text>
  <rect x="40" y="120" width="60" height="60" rx="12" fill="#E53935"/>
  <text x="70" y="160" text-anchor="middle" font-size="28" font-weight="bold" fill="#FFF" font-family="sans-serif">1</text>
  <rect x="115" y="120" width="60" height="60" rx="12" fill="#FB8C00"/>
  <text x="145" y="160" text-anchor="middle" font-size="28" font-weight="bold" fill="#FFF" font-family="sans-serif">2</text>
  <rect x="190" y="120" width="60" height="60" rx="12" fill="#FDD835"/>
  <text x="220" y="160" text-anchor="middle" font-size="28" font-weight="bold" fill="#FFF" font-family="sans-serif">3</text>
  <rect x="265" y="120" width="60" height="60" rx="12" fill="#43A047"/>
  <text x="295" y="160" text-anchor="middle" font-size="28" font-weight="bold" fill="#FFF" font-family="sans-serif">4</text>
  <rect x="340" y="120" width="60" height="60" rx="12" fill="#1E88E5"/>
  <text x="370" y="160" text-anchor="middle" font-size="28" font-weight="bold" fill="#FFF" font-family="sans-serif">5</text>
  <rect x="415" y="120" width="60" height="60" rx="12" fill="#8E24AA"/>
  <text x="445" y="160" text-anchor="middle" font-size="28" font-weight="bold" fill="#FFF" font-family="sans-serif">6</text>
  <rect x="490" y="120" width="60" height="60" rx="12" fill="#F06292"/>
  <text x="520" y="160" text-anchor="middle" font-size="28" font-weight="bold" fill="#FFF" font-family="sans-serif">7</text>
  <rect x="565" y="120" width="60" height="60" rx="12" fill="#00ACC1"/>
  <text x="595" y="160" text-anchor="middle" font-size="28" font-weight="bold" fill="#FFF" font-family="sans-serif">8</text>
  <text x="320" y="260" text-anchor="middle" font-size="22" fill="#283593" font-family="sans-serif">1, 2, 3, 4, 5, 6, 7, 8 ✓</text>
</svg>